<?xml version="1.0" encoding="UTF-8" standalone="no"?>
<!DOCTYPE svg PUBLIC "-//W3C//DTD SVG 1.1//EN"
 "http://www.w3.org/Graphics/SVG/1.1/DTD/svg11.dtd">
<!-- Generated by graphviz version 14.0.0 (20250921.2048)
 -->
<!-- Title: snakemake_dag Pages: 1 -->
<svg width="864pt" height="476pt"
 viewBox="0.00 0.00 864.00 476.00" xmlns="http://www.w3.org/2000/svg" xmlns:xlink="http://www.w3.org/1999/xlink">
<g id="graph0" class="graph" transform="scale(1 1) rotate(0) translate(4 472)">
<title>snakemake_dag</title>
<polygon fill="white" stroke="none" points="-4,4 -4,-472 859.62,-472 859.62,4 -4,4"/>
<!-- 0 -->
<g id="node1" class="node">
<title>0</title>
<path fill="none" stroke="#d86e56" stroke-width="2" stroke-dasharray="5,2" d="M399.38,-36C399.38,-36 369.38,-36 369.38,-36 363.38,-36 357.38,-30 357.38,-24 357.38,-24 357.38,-12 357.38,-12 357.38,-6 363.38,0 369.38,0 369.38,0 399.38,0 399.38,0 405.38,0 411.38,-6 411.38,-12 411.38,-12 411.38,-24 411.38,-24 411.38,-30 405.38,-36 399.38,-36"/>
<text xml:space="preserve" text-anchor="middle" x="384.38" y="-14.12" font-family="sans" font-size="10.00">all</text>
</g>
<!-- 1 -->
<g id="node2" class="node">
<title>1</title>
<path fill="none" stroke="#5682d8" stroke-width="2" stroke-dasharray="5,2" d="M235.88,-108C235.88,-108 174.88,-108 174.88,-108 168.88,-108 162.88,-102 162.88,-96 162.88,-96 162.88,-84 162.88,-84 162.88,-78 168.88,-72 174.88,-72 174.88,-72 235.88,-72 235.88,-72 241.88,-72 247.88,-78 247.88,-84 247.88,-84 247.88,-96 247.88,-96 247.88,-102 241.88,-108 235.88,-108"/>
<text xml:space="preserve" text-anchor="middle" x="205.38" y="-86.12" font-family="sans" font-size="10.00">write_lr_records</text>
</g>
<!-- 1&#45;&gt;0 -->
<g id="edge1" class="edge">
<title>1&#45;&gt;0</title>
<path fill="none" stroke="grey" stroke-width="2" d="M248.71,-72.05C277.91,-60.64 316.14,-45.68 344.57,-34.56"/>
<polygon fill="grey" stroke="grey" stroke-width="2" points="345.63,-37.91 353.67,-31.01 343.09,-31.39 345.63,-37.91"/>
</g>
<!-- 2 -->
<g id="node3" class="node">
<title>2</title>
<path fill="none" stroke="#b6d856" stroke-width="2" stroke-dasharray="5,2" d="M326.12,-180C326.12,-180 242.62,-180 242.62,-180 236.62,-180 230.62,-174 230.62,-168 230.62,-168 230.62,-156 230.62,-156 230.62,-150 236.62,-144 242.62,-144 242.62,-144 326.12,-144 326.12,-144 332.12,-144 338.12,-150 338.12,-156 338.12,-156 338.12,-168 338.12,-168 338.12,-174 332.12,-180 326.12,-180"/>
<text xml:space="preserve" text-anchor="middle" x="284.38" y="-163.75" font-family="sans" font-size="10.00">download_annotation</text>
<text xml:space="preserve" text-anchor="middle" x="284.38" y="-152.5" font-family="sans" font-size="10.00">dataset_id: K562</text>
</g>
<!-- 2&#45;&gt;1 -->
<g id="edge5" class="edge">
<title>2&#45;&gt;1</title>
<path fill="none" stroke="grey" stroke-width="2" d="M264.44,-143.34C255.62,-135.52 245.06,-126.16 235.32,-117.53"/>
<polygon fill="grey" stroke="grey" stroke-width="2" points="237.65,-114.92 227.84,-110.91 233.01,-120.16 237.65,-114.92"/>
</g>
<!-- 3 -->
<g id="node4" class="node">
<title>3</title>
<path fill="none" stroke="#70d856" stroke-width="2" stroke-dasharray="5,2" d="M100.75,-180C100.75,-180 12,-180 12,-180 6,-180 0,-174 0,-168 0,-168 0,-156 0,-156 0,-150 6,-144 12,-144 12,-144 100.75,-144 100.75,-144 106.75,-144 112.75,-150 112.75,-156 112.75,-156 112.75,-168 112.75,-168 112.75,-174 106.75,-180 100.75,-180"/>
<text xml:space="preserve" text-anchor="middle" x="56.38" y="-163.75" font-family="sans" font-size="10.00">download_quantitation</text>
<text xml:space="preserve" text-anchor="middle" x="56.38" y="-152.5" font-family="sans" font-size="10.00">dataset_id: K562</text>
</g>
<!-- 3&#45;&gt;1 -->
<g id="edge6" class="edge">
<title>3&#45;&gt;1</title>
<path fill="none" stroke="grey" stroke-width="2" d="M94.36,-143.15C112.94,-134.43 135.55,-123.81 155.5,-114.43"/>
<polygon fill="grey" stroke="grey" stroke-width="2" points="156.9,-117.64 164.46,-110.22 153.92,-111.31 156.9,-117.64"/>
</g>
<!-- 4 -->
<g id="node5" class="node">
<title>4</title>
<path fill="none" stroke="#56c9d8" stroke-width="2" stroke-dasharray="5,2" d="M200.38,-180C200.38,-180 142.38,-180 142.38,-180 136.38,-180 130.38,-174 130.38,-168 130.38,-168 130.38,-156 130.38,-156 130.38,-150 136.38,-144 142.38,-144 142.38,-144 200.38,-144 200.38,-144 206.38,-144 212.38,-150 212.38,-156 212.38,-156 212.38,-168 212.38,-168 212.38,-174 206.38,-180 200.38,-180"/>
<text xml:space="preserve" text-anchor="middle" x="171.38" y="-158.12" font-family="sans" font-size="10.00">make_intervals</text>
</g>
<!-- 4&#45;&gt;1 -->
<g id="edge7" class="edge">
<title>4&#45;&gt;1</title>
<path fill="none" stroke="grey" stroke-width="2" d="M179.95,-143.34C183.31,-136.43 187.25,-128.31 191.02,-120.56"/>
<polygon fill="grey" stroke="grey" stroke-width="2" points="194.14,-122.15 195.36,-111.62 187.84,-119.09 194.14,-122.15"/>
</g>
<!-- 5 -->
<g id="node6" class="node">
<title>5</title>
<path fill="none" stroke="#59d856" stroke-width="2" stroke-dasharray="5,2" d="M311.88,-252C311.88,-252 172.88,-252 172.88,-252 166.88,-252 160.88,-246 160.88,-240 160.88,-240 160.88,-228 160.88,-228 160.88,-222 166.88,-216 172.88,-216 172.88,-216 311.88,-216 311.88,-216 317.88,-216 323.88,-222 323.88,-228 323.88,-228 323.88,-240 323.88,-240 323.88,-246 317.88,-252 311.88,-252"/>
<text xml:space="preserve" text-anchor="middle" x="242.38" y="-235.75" font-family="sans" font-size="10.00">download_ref_annotation</text>
<text xml:space="preserve" text-anchor="middle" x="242.38" y="-224.5" font-family="sans" font-size="10.00">reference_id: grch38.gencode.v29</text>
</g>
<!-- 5&#45;&gt;4 -->
<g id="edge8" class="edge">
<title>5&#45;&gt;4</title>
<path fill="none" stroke="grey" stroke-width="2" d="M224.46,-215.34C216.61,-207.6 207.24,-198.36 198.56,-189.81"/>
<polygon fill="grey" stroke="grey" stroke-width="2" points="201.27,-187.56 191.69,-183.03 196.35,-192.54 201.27,-187.56"/>
</g>
<!-- 16 -->
<g id="node17" class="node">
<title>16</title>
<path fill="none" stroke="#ced856" stroke-width="2" stroke-dasharray="5,2" d="M382.38,-108C382.38,-108 312.38,-108 312.38,-108 306.38,-108 300.38,-102 300.38,-96 300.38,-96 300.38,-84 300.38,-84 300.38,-78 306.38,-72 312.38,-72 312.38,-72 382.38,-72 382.38,-72 388.38,-72 394.38,-78 394.38,-84 394.38,-84 394.38,-96 394.38,-96 394.38,-102 388.38,-108 382.38,-108"/>
<text xml:space="preserve" text-anchor="middle" x="347.38" y="-86.12" font-family="sans" font-size="10.00">commit_reference</text>
</g>
<!-- 5&#45;&gt;16 -->
<g id="edge20" class="edge">
<title>5&#45;&gt;16</title>
<path fill="none" stroke="grey" stroke-width="2" d="M304.87,-215.05C321.55,-207.1 337.64,-195.83 347.38,-180 358.01,-162.72 357.73,-139.75 354.94,-121.47"/>
<polygon fill="grey" stroke="grey" stroke-width="2" points="358.41,-120.99 353.09,-111.83 351.54,-122.31 358.41,-120.99"/>
</g>
<!-- 6 -->
<g id="node7" class="node">
<title>6</title>
<path fill="none" stroke="#566bd8" stroke-width="2" stroke-dasharray="5,2" d="M527.38,-108C527.38,-108 463.38,-108 463.38,-108 457.38,-108 451.38,-102 451.38,-96 451.38,-96 451.38,-84 451.38,-84 451.38,-78 457.38,-72 463.38,-72 463.38,-72 527.38,-72 527.38,-72 533.38,-72 539.38,-78 539.38,-84 539.38,-84 539.38,-96 539.38,-96 539.38,-102 533.38,-108 527.38,-108"/>
<text xml:space="preserve" text-anchor="middle" x="495.38" y="-86.12" font-family="sans" font-size="10.00">write_sr_records</text>
</g>
<!-- 6&#45;&gt;0 -->
<g id="edge2" class="edge">
<title>6&#45;&gt;0</title>
<path fill="none" stroke="grey" stroke-width="2" d="M467.08,-71.15C453.67,-62.7 437.44,-52.47 422.93,-43.31"/>
<polygon fill="grey" stroke="grey" stroke-width="2" points="425.12,-40.56 414.8,-38.18 421.39,-46.48 425.12,-40.56"/>
</g>
<!-- 7 -->
<g id="node8" class="node">
<title>7</title>
<path fill="none" stroke="#56c9d8" stroke-width="2" stroke-dasharray="5,2" d="M524.38,-252C524.38,-252 466.38,-252 466.38,-252 460.38,-252 454.38,-246 454.38,-240 454.38,-240 454.38,-228 454.38,-228 454.38,-222 460.38,-216 466.38,-216 466.38,-216 524.38,-216 524.38,-216 530.38,-216 536.38,-222 536.38,-228 536.38,-228 536.38,-240 536.38,-240 536.38,-246 530.38,-252 524.38,-252"/>
<text xml:space="preserve" text-anchor="middle" x="495.38" y="-230.12" font-family="sans" font-size="10.00">make_intervals</text>
</g>
<!-- 7&#45;&gt;6 -->
<g id="edge9" class="edge">
<title>7&#45;&gt;6</title>
<path fill="none" stroke="grey" stroke-width="2" d="M495.38,-215.02C495.38,-191.54 495.38,-150.11 495.38,-121.64"/>
<polygon fill="grey" stroke="grey" stroke-width="2" points="498.88,-121.87 495.38,-111.87 491.88,-121.87 498.88,-121.87"/>
</g>
<!-- 8 -->
<g id="node9" class="node">
<title>8</title>
<path fill="none" stroke="#59d856" stroke-width="2" stroke-dasharray="5,2" d="M564.88,-468C564.88,-468 425.88,-468 425.88,-468 419.88,-468 413.88,-462 413.88,-456 413.88,-456 413.88,-444 413.88,-444 413.88,-438 419.88,-432 425.88,-432 425.88,-432 564.88,-432 564.88,-432 570.88,-432 576.88,-438 576.88,-444 576.88,-444 576.88,-456 576.88,-456 576.88,-462 570.88,-468 564.88,-468"/>
<text xml:space="preserve" text-anchor="middle" x="495.38" y="-451.75" font-family="sans" font-size="10.00">download_ref_annotation</text>
<text xml:space="preserve" text-anchor="middle" x="495.38" y="-440.5" font-family="sans" font-size="10.00">reference_id: grch38.gencode.v49</text>
</g>
<!-- 8&#45;&gt;7 -->
<g id="edge11" class="edge">
<title>8&#45;&gt;7</title>
<path fill="none" stroke="grey" stroke-width="2" d="M495.38,-431.12C495.38,-394.62 495.38,-311.13 495.38,-265.74"/>
<polygon fill="grey" stroke="grey" stroke-width="2" points="498.88,-266 495.38,-256 491.88,-266 498.88,-266"/>
</g>
<!-- 14 -->
<g id="node15" class="node">
<title>14</title>
<path fill="none" stroke="#56d89a" stroke-width="2" stroke-dasharray="5,2" d="M713,-396C713,-396 535.75,-396 535.75,-396 529.75,-396 523.75,-390 523.75,-384 523.75,-384 523.75,-372 523.75,-372 523.75,-366 529.75,-360 535.75,-360 535.75,-360 713,-360 713,-360 719,-360 725,-366 725,-372 725,-372 725,-384 725,-384 725,-390 719,-396 713,-396"/>
<text xml:space="preserve" text-anchor="middle" x="624.38" y="-374.12" font-family="sans" font-size="10.00">index_and_cut_fasta_unzip_ref_annotation</text>
</g>
<!-- 8&#45;&gt;14 -->
<g id="edge18" class="edge">
<title>8&#45;&gt;14</title>
<path fill="none" stroke="grey" stroke-width="2" d="M528.26,-431.15C544.03,-422.6 563.15,-412.22 580.17,-402.99"/>
<polygon fill="grey" stroke="grey" stroke-width="2" points="581.77,-406.1 588.89,-398.26 578.43,-399.95 581.77,-406.1"/>
</g>
<!-- 17 -->
<g id="node18" class="node">
<title>17</title>
<path fill="none" stroke="#ced856" stroke-width="2" stroke-dasharray="5,2" d="M455.38,-324C455.38,-324 385.38,-324 385.38,-324 379.38,-324 373.38,-318 373.38,-312 373.38,-312 373.38,-300 373.38,-300 373.38,-294 379.38,-288 385.38,-288 385.38,-288 455.38,-288 455.38,-288 461.38,-288 467.38,-294 467.38,-300 467.38,-300 467.38,-312 467.38,-312 467.38,-318 461.38,-324 455.38,-324"/>
<text xml:space="preserve" text-anchor="middle" x="420.38" y="-302.12" font-family="sans" font-size="10.00">commit_reference</text>
</g>
<!-- 8&#45;&gt;17 -->
<g id="edge21" class="edge">
<title>8&#45;&gt;17</title>
<path fill="none" stroke="grey" stroke-width="2" d="M485.88,-431.02C473.25,-407.12 450.79,-364.59 435.74,-336.1"/>
<polygon fill="grey" stroke="grey" stroke-width="2" points="438.98,-334.72 431.21,-327.52 432.79,-337.99 438.98,-334.72"/>
</g>
<!-- 9 -->
<g id="node10" class="node">
<title>9</title>
<path fill="none" stroke="#d89c56" stroke-width="2" stroke-dasharray="5,2" d="M648.25,-180C648.25,-180 550.5,-180 550.5,-180 544.5,-180 538.5,-174 538.5,-168 538.5,-168 538.5,-156 538.5,-156 538.5,-150 544.5,-144 550.5,-144 550.5,-144 648.25,-144 648.25,-144 654.25,-144 660.25,-150 660.25,-156 660.25,-156 660.25,-168 660.25,-168 660.25,-174 654.25,-180 648.25,-180"/>
<text xml:space="preserve" text-anchor="middle" x="599.38" y="-158.12" font-family="sans" font-size="10.00">calculate_offsets_tuples</text>
</g>
<!-- 9&#45;&gt;6 -->
<g id="edge10" class="edge">
<title>9&#45;&gt;6</title>
<path fill="none" stroke="grey" stroke-width="2" d="M572.86,-143.15C560.64,-134.93 545.92,-125.02 532.6,-116.06"/>
<polygon fill="grey" stroke="grey" stroke-width="2" points="534.6,-113.18 524.35,-110.5 530.69,-118.99 534.6,-113.18"/>
</g>
<!-- 10 -->
<g id="node11" class="node">
<title>10</title>
<path fill="none" stroke="#d88556" stroke-width="2" stroke-dasharray="5,2" d="M649.12,-252C649.12,-252 577.62,-252 577.62,-252 571.62,-252 565.62,-246 565.62,-240 565.62,-240 565.62,-228 565.62,-228 565.62,-222 571.62,-216 577.62,-216 577.62,-216 649.12,-216 649.12,-216 655.12,-216 661.12,-222 661.12,-228 661.12,-228 661.12,-240 661.12,-240 661.12,-246 655.12,-252 649.12,-252"/>
<text xml:space="preserve" text-anchor="middle" x="613.38" y="-230.12" font-family="sans" font-size="10.00">bedtools_intersect</text>
</g>
<!-- 10&#45;&gt;9 -->
<g id="edge12" class="edge">
<title>10&#45;&gt;9</title>
<path fill="none" stroke="grey" stroke-width="2" d="M609.84,-215.34C608.53,-208.75 606.99,-201.08 605.51,-193.67"/>
<polygon fill="grey" stroke="grey" stroke-width="2" points="608.94,-192.99 603.55,-183.87 602.08,-194.36 608.94,-192.99"/>
</g>
<!-- 11 -->
<g id="node12" class="node">
<title>11</title>
<path fill="none" stroke="#56d8b1" stroke-width="2" stroke-dasharray="5,2" d="M768.25,-324C768.25,-324 694.5,-324 694.5,-324 688.5,-324 682.5,-318 682.5,-312 682.5,-312 682.5,-300 682.5,-300 682.5,-294 688.5,-288 694.5,-288 694.5,-288 768.25,-288 768.25,-288 774.25,-288 780.25,-294 780.25,-300 780.25,-300 780.25,-312 780.25,-312 780.25,-318 774.25,-324 768.25,-324"/>
<text xml:space="preserve" text-anchor="middle" x="731.38" y="-302.12" font-family="sans" font-size="10.00">junctions_annotate</text>
</g>
<!-- 11&#45;&gt;10 -->
<g id="edge13" class="edge">
<title>11&#45;&gt;10</title>
<path fill="none" stroke="grey" stroke-width="2" d="M701.29,-287.15C687.01,-278.68 669.72,-268.42 654.26,-259.25"/>
<polygon fill="grey" stroke="grey" stroke-width="2" points="656.39,-256.45 646.01,-254.36 652.82,-262.47 656.39,-256.45"/>
</g>
<!-- 12 -->
<g id="node13" class="node">
<title>12</title>
<path fill="none" stroke="#56d8c9" stroke-width="2" stroke-dasharray="5,2" d="M821.5,-396C821.5,-396 755.25,-396 755.25,-396 749.25,-396 743.25,-390 743.25,-384 743.25,-384 743.25,-372 743.25,-372 743.25,-366 749.25,-360 755.25,-360 755.25,-360 821.5,-360 821.5,-360 827.5,-360 833.5,-366 833.5,-372 833.5,-372 833.5,-384 833.5,-384 833.5,-390 827.5,-396 821.5,-396"/>
<text xml:space="preserve" text-anchor="middle" x="788.38" y="-374.12" font-family="sans" font-size="10.00">junctions_extract</text>
</g>
<!-- 12&#45;&gt;11 -->
<g id="edge15" class="edge">
<title>12&#45;&gt;11</title>
<path fill="none" stroke="grey" stroke-width="2" d="M773.99,-359.34C767.96,-351.93 760.81,-343.14 754.1,-334.9"/>
<polygon fill="grey" stroke="grey" stroke-width="2" points="756.89,-332.79 747.86,-327.25 751.46,-337.21 756.89,-332.79"/>
</g>
<!-- 13 -->
<g id="node14" class="node">
<title>13</title>
<path fill="none" stroke="#9fd856" stroke-width="2" stroke-dasharray="5,2" d="M843.62,-468C843.62,-468 733.12,-468 733.12,-468 727.12,-468 721.12,-462 721.12,-456 721.12,-456 721.12,-444 721.12,-444 721.12,-438 727.12,-432 733.12,-432 733.12,-432 843.62,-432 843.62,-432 849.62,-432 855.62,-438 855.62,-444 855.62,-444 855.62,-456 855.62,-456 855.62,-462 849.62,-468 843.62,-468"/>
<text xml:space="preserve" text-anchor="middle" x="788.38" y="-451.75" font-family="sans" font-size="10.00">download_bam</text>
<text xml:space="preserve" text-anchor="middle" x="788.38" y="-440.5" font-family="sans" font-size="10.00">dataset_id: ENCFF894FXL</text>
</g>
<!-- 13&#45;&gt;12 -->
<g id="edge17" class="edge">
<title>13&#45;&gt;12</title>
<path fill="none" stroke="grey" stroke-width="2" d="M788.38,-431.34C788.38,-424.75 788.38,-417.08 788.38,-409.67"/>
<polygon fill="grey" stroke="grey" stroke-width="2" points="791.88,-409.93 788.38,-399.93 784.88,-409.93 791.88,-409.93"/>
</g>
<!-- 14&#45;&gt;11 -->
<g id="edge16" class="edge">
<title>14&#45;&gt;11</title>
<path fill="none" stroke="grey" stroke-width="2" d="M651.65,-359.15C664.36,-350.84 679.68,-340.82 693.48,-331.79"/>
<polygon fill="grey" stroke="grey" stroke-width="2" points="695.16,-334.87 701.61,-326.47 691.33,-329.02 695.16,-334.87"/>
</g>
<!-- 15 -->
<g id="node16" class="node">
<title>15</title>
<path fill="none" stroke="#d8cb56" stroke-width="2" stroke-dasharray="5,2" d="M652.88,-324C652.88,-324 573.88,-324 573.88,-324 567.88,-324 561.88,-318 561.88,-312 561.88,-312 561.88,-300 561.88,-300 561.88,-294 567.88,-288 573.88,-288 573.88,-288 652.88,-288 652.88,-288 658.88,-288 664.88,-294 664.88,-300 664.88,-300 664.88,-312 664.88,-312 664.88,-318 658.88,-324 652.88,-324"/>
<text xml:space="preserve" text-anchor="middle" x="613.38" y="-302.12" font-family="sans" font-size="10.00">collapse_transcripts</text>
</g>
<!-- 14&#45;&gt;15 -->
<g id="edge19" class="edge">
<title>14&#45;&gt;15</title>
<path fill="none" stroke="grey" stroke-width="2" d="M621.6,-359.34C620.56,-352.75 619.36,-345.08 618.19,-337.67"/>
<polygon fill="grey" stroke="grey" stroke-width="2" points="621.67,-337.23 616.66,-327.89 614.75,-338.31 621.67,-337.23"/>
</g>
<!-- 15&#45;&gt;10 -->
<g id="edge14" class="edge">
<title>15&#45;&gt;10</title>
<path fill="none" stroke="grey" stroke-width="2" d="M613.38,-287.34C613.38,-280.75 613.38,-273.08 613.38,-265.67"/>
<polygon fill="grey" stroke="grey" stroke-width="2" points="616.88,-265.93 613.38,-255.93 609.88,-265.93 616.88,-265.93"/>
</g>
<!-- 16&#45;&gt;0 -->
<g id="edge3" class="edge">
<title>16&#45;&gt;0</title>
<path fill="none" stroke="grey" stroke-width="2" d="M356.71,-71.34C360.41,-64.34 364.76,-56.12 368.9,-48.28"/>
<polygon fill="grey" stroke="grey" stroke-width="2" points="371.92,-50.05 373.5,-39.58 365.73,-46.78 371.92,-50.05"/>
</g>
<!-- 17&#45;&gt;0 -->
<g id="edge4" class="edge">
<title>17&#45;&gt;0</title>
<path fill="none" stroke="grey" stroke-width="2" d="M420.71,-287.23C421.09,-247.96 420.08,-150.96 403.38,-72 401.76,-64.37 399.31,-56.36 396.7,-48.93"/>
<polygon fill="grey" stroke="grey" stroke-width="2" points="399.99,-47.75 393.19,-39.63 393.44,-50.22 399.99,-47.75"/>
</g>
</g>
</svg>
